# xmcd
#
# Track frame offsets:
#	151
#	11224
#	22306
#	37859
#	51059
#	65434
#	78566
#	91686
#	106941
#	115036
#	126606
#	140264
#	149414
#	160601
#	175044
#
# Disc length: 2493 seconds
#
# Revision: 0
# Processed by: cddbd v1.5.2PL0 Copyright (c) Steve Scherf et al.
# Submitted via: EasyCDDAExtractor 2010.6.0.0
#
DISCID=c409bb0f
DTITLE=Antonio Aguilar - Colección 30 Super Éxitos CD1  
DYEAR=2000
DGENRE=Rancheras
TTITLE0=Estrellita Marinera
TTITLE1=Dos Pasajes
TTITLE2=La Mal Sentada
TTITLE3=El Ojo De Vidrio
TTITLE4=Un Puño De Tierra
TTITLE5=Las Mañanitas
TTITLE6=Morenita Cantinera
TTITLE7=La Tumba Abandonada
TTITLE8=Clavelito Chino Chino
TTITLE9=La Culebra Pollera
TTITLE10=La Recién Casada
TTITLE11=La Malagradecida
TTITLE12=Hasta Aqui Te Trajo El Rio
TTITLE13=La Puerta Negra
TTITLE14=La Panchita
EXTD=
EXTT0=
EXTT1=
EXTT2=
EXTT3=
EXTT4=
EXTT5=
EXTT6=
EXTT7=
EXTT8=
EXTT9=
EXTT10=
EXTT11=
EXTT12=
EXTT13=
EXTT14=
PLAYORDER=
